<?xml version="1.0" encoding="UTF-8"?>
<svg id="Layer_2" data-name="Layer 2" xmlns="http://www.w3.org/2000/svg" viewBox="0 0 58.08 58.02">
  <defs>
    <style>
      .cls-1 {
        stroke-width: 0px;
      }
    </style>
  </defs>
  <g id="Layer_1-2" data-name="Layer 1">
    <path class="cls-1" d="m57.19,52.99l-13.3-13.3.5-.7c8-11,5.5-26.3-5.4-34.3S12.69-.81,4.69,10.09C-3.31,20.99-.81,36.49,10.09,44.39c8.6,6.2,20.2,6.2,28.8,0l.7-.5,13.3,13.3c1.2,1.1,3.1,1.1,4.2,0,1.3-1.1,1.3-3,.1-4.2h0Zm-32.6-9.9c-10.2,0-18.5-8.3-18.5-18.5S14.39,6.09,24.59,6.09s18.5,8.3,18.5,18.5-8.3,18.5-18.5,18.5Z"/>
  </g>
</svg>