<?xml version="1.0" encoding="UTF-8"?>
<svg id="Layer_2" data-name="Layer 2" xmlns="http://www.w3.org/2000/svg" viewBox="0 0 365.38 87.33">
  <defs>
    <style>
      .cls-1 {
        fill: #fff;
      }

      .cls-1, .cls-2, .cls-3, .cls-4 {
        stroke-width: 0px;
      }

      .cls-2 {
        fill: #231f20;
      }

      .cls-3 {
        fill: #cd1543;
      }

      .cls-4 {
        fill: #ffd74f;
      }
    </style>
  </defs>
  <g id="master_logo" data-name="master logo">
    <g>
      <g>
        <polygon class="cls-1" points="84.7 28.17 92.57 28.17 99.48 50.75 106.97 28.07 113.25 28.07 120.74 50.75 127.64 28.17 135.32 28.17 123.92 61.76 117.54 61.76 110.02 39.94 102.48 61.76 96.1 61.76 84.7 28.17"/>
        <path class="cls-1" d="m154.66,47.8l-4.43-10.82-4.43,10.82h8.86Zm-7.72-19.64h6.77l14.29,33.6h-7.67l-3.05-7.49h-14.11l-3.05,7.49h-7.49l14.3-33.6Z"/>
        <polygon class="cls-1" points="176 35.17 165.85 35.17 165.85 28.4 193.5 28.4 193.5 35.17 183.36 35.17 183.36 61.76 176 61.76 176 35.17"/>
        <polygon class="cls-1" points="199.08 28.4 224.25 28.4 224.25 34.92 206.37 34.92 206.37 41.69 222.11 41.69 222.11 48.23 206.37 48.23 206.37 55.24 224.48 55.24 224.48 61.76 199.08 61.76 199.08 28.4"/>
        <path class="cls-1" d="m247.15,44.61c3.58,0,5.63-1.91,5.63-4.72v-.1c0-3.15-2.2-4.77-5.77-4.77h-7.29v9.58h7.43Zm-14.78-16.2h15.26c4.24,0,7.53,1.19,9.72,3.39,1.86,1.86,2.86,4.47,2.86,7.61v.1c0,5.39-2.9,8.78-7.15,10.35l8.14,11.91h-8.58l-7.15-10.68h-5.76v10.68h-7.34V28.4Z"/>
        <polygon class="cls-1" points="268.31 28.4 275.65 28.4 275.65 55.09 291.27 55.09 291.27 61.76 268.31 61.76 268.31 28.4"/>
        <path class="cls-1" d="m320.18,45.18v-.1c0-5.71-4.19-10.48-10.1-10.48s-10.01,4.67-10.01,10.39v.09c0,5.72,4.19,10.49,10.11,10.49s10-4.67,10-10.39m-27.79,0v-.1c0-9.48,7.48-17.25,17.79-17.25s17.68,7.68,17.68,17.16v.09c0,9.49-7.49,17.26-17.78,17.26s-17.69-7.67-17.69-17.16"/>
        <path class="cls-1" d="m357.71,45.18v-.1c0-5.71-4.19-10.48-10.11-10.48s-10.01,4.67-10.01,10.39v.09c0,5.72,4.2,10.49,10.1,10.49s10.02-4.67,10.02-10.39m-27.79,0v-.1c0-9.48,7.48-17.25,17.77-17.25s17.69,7.68,17.69,17.16v.09c0,9.49-7.48,17.26-17.78,17.26s-17.68-7.67-17.68-17.16"/>
        <g>
          <path class="cls-1" d="m103.33,11.52V2.74h3.38v8.7c0,2.5,1.25,3.8,3.32,3.8s3.32-1.25,3.32-3.69V2.74h3.38v8.67c0,4.66-2.61,6.94-6.74,6.94s-6.66-2.31-6.66-6.83Z"/>
          <path class="cls-1" d="m125.71,2.74h3.12l7.2,9.47V2.74h3.34v15.37h-2.88l-7.45-9.77v9.77h-3.34V2.74Z"/>
          <path class="cls-1" d="m148.99,2.74h3.38v15.37h-3.38V2.74Z"/>
          <path class="cls-1" d="m160.67,2.74h3.73l4.02,10.83,4.02-10.83h3.64l-6.21,15.48h-2.99l-6.21-15.48Z"/>
          <path class="cls-1" d="m184.23,2.74h11.6v3.01h-8.24v3.12h7.25v3.01h-7.25v3.23h8.34v3.01h-11.7V2.74Z"/>
          <path class="cls-1" d="m204.72,2.74h7.03c1.95,0,3.47.55,4.48,1.56.85.85,1.32,2.06,1.32,3.51v.04c0,2.48-1.34,4.04-3.29,4.77l3.76,5.49h-3.95l-3.29-4.92h-2.66v4.92h-3.38V2.74Zm6.81,7.47c1.64,0,2.59-.88,2.59-2.17v-.04c0-1.45-1.01-2.2-2.66-2.2h-3.36v4.41h3.43Z"/>
          <path class="cls-1" d="m225.32,15.87l2-2.39c1.38,1.14,2.83,1.87,4.59,1.87,1.38,0,2.22-.55,2.22-1.45v-.04c0-.86-.53-1.29-3.1-1.95-3.1-.79-5.09-1.65-5.09-4.7v-.04c0-2.79,2.24-4.63,5.38-4.63,2.24,0,4.15.7,5.71,1.95l-1.76,2.55c-1.36-.94-2.7-1.52-4-1.52s-1.98.59-1.98,1.34v.04c0,1.01.66,1.34,3.32,2.02,3.12.81,4.87,1.93,4.87,4.61v.04c0,3.05-2.33,4.76-5.64,4.76-2.33,0-4.68-.81-6.52-2.46Z"/>
          <path class="cls-1" d="m246.36,2.74h3.38v15.37h-3.38V2.74Z"/>
          <path class="cls-1" d="m262.93,5.86h-4.68v-3.12h12.74v3.12h-4.68v12.25h-3.38V5.86Z"/>
          <path class="cls-1" d="m283.69,12.05l-5.91-9.31h3.95l3.67,6.17,3.73-6.17h3.84l-5.91,9.25v6.13h-3.38v-6.06Z"/>
          <path class="cls-1" d="m312.19,10.47v-.04c0-4.37,3.45-7.95,8.19-7.95s8.15,3.54,8.15,7.91v.04c0,4.37-3.45,7.95-8.19,7.95s-8.15-3.53-8.15-7.9Zm12.8,0v-.04c0-2.64-1.93-4.83-4.66-4.83s-4.61,2.15-4.61,4.79v.04c0,2.63,1.93,4.83,4.66,4.83s4.61-2.15,4.61-4.79Z"/>
          <path class="cls-1" d="m335.79,2.74h11.7v3.08h-8.32v3.27h7.33v3.07h-7.33v5.95h-3.38V2.74Z"/>
        </g>
      </g>
      <path class="cls-1" d="m37.82,87.33l-.9-.42c-9.98-4.62-18.03-11.32-23.29-19.39C1.02,48.16.6,28.17.16,7.01c-.03-1.6-.07-3.21-.11-4.82l-.05-2.19h75.59l-.05,2.19c-.04,1.62-.07,3.24-.11,4.85-.44,21.15-.86,41.13-13.47,60.47-5.25,8.06-13.29,14.76-23.25,19.39l-.9.42Z"/>
      <path class="cls-4" d="m37.64,26.06l-29.62,23.31C3.27,34.63,3.4,19.22,3.01,3.52h69.1c-.38,15.73-.2,31.09-5,45.86l-29.47-23.33Z"/>
      <path class="cls-4" d="m61.62,61.95c-.73,1.3-1.51,2.59-2.35,3.87-5.27,8.09-13.09,14.07-21.7,18.07-8.64-4-16.46-9.98-21.73-18.07-.82-1.26-2.3-3.78-2.3-3.78l24.09-19.23,23.98,19.13Z"/>
      <path class="cls-3" d="m17.37,15.35c-3.5-.74-6.61-3.34-5.86-6.65,0-.03-.13-.85-.44-.97-.02,0-.07-.1-.12-.12-.13-.03-.25-.09-.36-.17-.04-.03-.2-.08-.2-.14-.06.14-.05.26-.14.38-.03.04-.08.11-.13.14-.06.03-.07.09-.12.13-.26.27-.12.66-.08.97.01.08.04.17-.05.19-.11.02-.02-.03-.15-.11-.03-.02-.08-.07-.11-.08-.05-.03-.27-.05-.31-.11-.04-.06-.02-.08-.08-.12-.12-.11-.13-.33-.22-.55-.02-.04-.05-.23-.05-.28,0-.22-.57-.58-.35-.4.08.06-.01-.09-.32-.17-.19-.05-.42-.04-.63-.01-.05,0-.09.04-.12.07-.22.17-.43.38-.72.39.05-.03.07.03.1.05.14.18.04.4.12.59.08.19.22.34.38.47.16.12.44-.04.56.18,0,0,.26.06,0,.32-.47.48-.99.09-1.38.97.59-.25.66.64.91.68,1.13.16,1.99.35,2.61,1.5.38.7-.68.73.28.89.49.08.81.33,1.05.67.26.36.29.84.57,1.18.2.24.28.29.52.49.11.09.46.18.59.21.13.03.21.1.33.15.13.05.27.09.38.19.09.08.33.16.39.27.1.19.02.39.12.58.03.05.18,0,.24.03.06.02.19.03.23.02.23-.05.28-.07.46-.09.26-.03.23.05.57.04.07,0,.1.05.2.05.07,0,.18.07.2.01.1-.32.27-.63.46-.94.19-.31.17-.34.41-.67-.03,0,.31-.23.28-.23"/>
      <path class="cls-3" d="m8.63,15.76c1.03.55.89,1.92,1.81,2.36,1.64.78,3.61,1.32,5.35.46-.39,1.22.04,2.23-.13,2.37-.55.44-2.22-.08-3.29-.51-.74-.29-1.33.8-2.14.7.04-.1.13-.38.08-.55-.13-.4-.23-.51-.89-.43-.42.05-.25.4-.88.71-.25-.15-.79-.32-.87.16-.04.22-.48-.77-.39-.94.42-.75.5-.92.47-1.08-.05-.25-.95-.58-1.07-.37-.28.49-1.11-1.58,1.33-1.45-.66-.42-.58-.49-.43-1,.02-.07-.23-.33-.39-.15-.06-.19.08-.4.23-.42.4-.06.79-.08,1.21.14"/>
      <path class="cls-3" d="m13.49,10.73c1.48.34,3.7-1.57,4.98.68-.95-.35-3.76,1.16-4.98-.68"/>
      <path class="cls-3" d="m25.89,14.01c-.03,1.93-2.03,4.02-.41,5.85-.66,0-1.45-.24-1.91-.61-.26-.21-.2.92-.17,1.15.03.2-1.23-1.19-1.71-.85-1.34.96-1.92,1.36-3.91,1.43-.55.02-.84.47-1,.95-.45-.92-.12-3.02.14-3.95.7-2.55,3.27-3.31,5.33-4.53,1.48-.88,2.11-2.59,2.03-4.27,1.05,1.31,1.62,3.18,1.59,4.82"/>
      <path class="cls-3" d="m16.47,35.75c.25.06.06.26-.03.33-.21.14-.35.3-.48.51-.1.15-.17.31-.13.5.03.14.07.26.12.39.03.08.1.12.16.19.02.03.11.14.12.15-.05-.2.22-.39.28-.36,1.27.74,1.35-.76,2.11-1.27.32-.22,1.06.03.87.7.76-.4.99-1.43,1.58-2.07,1.31-1.42,3.15-2.37,4.89-3.14-.63-.67-1.56-1.23-2.03-2-.23-.38-.51-1.12,0-.99,2.14.56,3.34-.75,3.58-2.44,3.17.41,4-2.59,4.43-4.86.21-1.1.81-1.19.15-3.07-.27-.78,1.41-1.04,1.12-2.39-.08-.37-.54-.75-.82-.79.26.73-.96.91-1.09,1.21-.21.47-.51.84-.55,1.33-1.03-1.43-.2-3.15.77-4.49,1.42-1.95,4.35-.93,5.59.33.02-.63-.47-1.43-.87-1.82,1.16-.15,2.41.56,3.99-.28.91-.49,1.83-.9,2.26-1.98-1.94.27-4.56-1.22-6.3-1.53-3.25-.56-5.44,1.65-6.6,4.3-1.16,2.64-.42,4.61.84,6.59.32.5-1.12.17-1.68.46-.55.28-.78.96-.65,1.56.69-.74,2.53-.28,2.7.99.23,1.72-1.51,4.22-3.18,3.47-1.79-.8-2.81-2.7-3.4-4.82-1.53,1.32-4.37.23-5.68,1.52-1.25,1.23,1.95,2.06,3.2,2.63.46.21.92.68.84,1.26-1.95-1.15-4.31.15-4.19,2.24.09,1.56,2,2.53,3.59,2.66.66.05,1.06.79.25,1.29-1.41.88-2.99,1.87-4.51.27-.25-.27-1.16-.1-1.35.38-.09.23-.12.6-.08.84.08-.14.18-.35.31-.34.15.02.33.18.31.29-.13.79-1.16.28-1.48.89,0,.01-.02.02-.03.04-.02.05-.05.09-.07.14-.21.41-.5.67.02,1-.01-.08.25.33.25.4.03-.38.42-.37.42-.37l.23.02.23.1Z"/>
      <path class="cls-3" d="m9.86,28.4c-.2-.07-.41.01-.61.1-.13.06-.28,0-.36.12-.05.08-.08.16-.05.25.01.05.03.14.07.16-.27-.02-.52-.2-.72-.39-.07-.06-.11-.13-.17-.19-.04-.04-.04-.12-.06-.18-.03-.06-.02-.13-.02-.2,0-.18-.01-.37.07-.54.04-.08.08-.16.13-.23.04-.06.09-.1.14-.15.14-.13.29-.23.47-.29.26-.08.55-.06.8.05.2.09.44.08.65.13.11.03.32-.29.17-.33-.67-.16-.66-.34-.91-1.02-.12-.13-.27.02-.34.09,0-1.29,1.53-1.38,2.17-.87.95.76.24,2.25,1.4,2.67.61.22,1.25.38,1.88.12,1.13-.48,0-1.61.37-2.57.74-1.93,2.36-2.03,4.3-.17-1.73.58-2.54,2.87-1.6,4.38-1.53-.6-3.46.41-4.53,1.1,1-1-.41-1.81-.76-1.63l-.43.3c-.21.26-.22.53-.47.77-.14.14-.22.16-.41.21-.25.07-.41.05-.64-.1-.04-.03-.18.03-.2.07-.12.15,0,.22,0,.28-.02-.02-.18-.15-.21-.17-.14-.11-.31-.2-.4-.35-.09-.15-.15-.53-.05-.73s.3-.27.44-.4c.13-.13-.02-.33-.18-.35"/>
      <path class="cls-3" d="m47.09,11.35c.14.09-.01.34-.17.38-.19.05-.45-.03-.61.04-.73.27-.73,2.06-.63,1.86.11-.23.65-.08,1-.01.56.11.99-1.03,1.36-1,.88.08,1.7,1.17,2.03,1.88.06.13-.37.14-.4.58,1.19-.11,2.2.66,3.07,1.37.42-.73.84-1.18,1.32-1.66-1.79-1.75-5.36-2.29-4.81-5.47.07-.41-.39-.77-.59-.97-.23-.22-.76-.23-1.08-.31.34.71-.27.77-.19,1.89,0,.04-.1.01-.14,0-.21-.09-.4-.23-.6-.35-.18-.11-.36-.08-.56-.05-.12.02-.24.07-.34.15-.17.12-.26.28-.37.45-.02.03-.05.07-.07.1-.04.04-.12.16-.12.22.09,0,.38.01.43.09.08.13.09.28.18.4.12.16.23.16.41.24.28.12.53.17.83.14"/>
      <path class="cls-3" d="m51.74,10.07c1.12-.08,2.23-.94,3.47.51-.23-.11-.5-.15-.63-.03-1.37,1.1-3.04.73-3.91-.64.36-.06.79.18,1.08.16"/>
      <path class="cls-3" d="m56.58,14.14c1.84-.93,3.7-1.68,4.46-3.96.15-.45.49.66.51.73.97,2.79-.97,5.56-.57,8.4-.65-.4-1.38-.67-2.09-.69-2.53-.07-3.13,1.46-3.27,1.32-.69-.7-2.68-1.3-2.54-1.17-1.18-1.09,2.23-3.98,3.5-4.63"/>
      <path class="cls-3" d="m51.55,32.69c.25.39-.08-.22.2.44,1.33-.56,2.71-1.2,4.19-.6-.65-3,1.54-3.73,1.71-4.18.28-.72-1.18-2.15-2.29-1.75-1.41.5-.82,2.28-1.08,3.52-.15.69-1,1.19-1.7.95-1.16-.4-1.63-1.49-1.92-2.7-.19-.81-1.77-.91-2.11-.25-.97,1.88.58-.22.47,1.21-.02.24-1.13.06-1.38.91-.17.58.38.96,1.07,1.17.13.04-.13-.29.04-.36.12-.05.63.22.57.26-.66.41-.83,1.34.35,1.75,0,0-.09-.34,0-.41.93-.69,1.89.06,1.89.03"/>
      <path class="cls-3" d="m31.5,51.65c1.11.51,1.47-.04,2.92-.27.2-.04,1.02.5,1.26.77-1.46.23-3.24,1.5-4.19-.5"/>
      <path class="cls-3" d="m30.91,52.82c-.07-.08-.16-.11-.25-.14-.09-.04-.19-.08-.29-.09-.03,0-.21-.05-.24-.06,0,.06.08.23.03.28-.12.11-.16.08-.25.22-.03.06-.07.11-.09.17-.03.13-.08.27-.1.42,0,.07.03.25.04.31,0,.04.09.2.11.24,0,0,.18.19.17.18.21.21.04.09.29.34.13.12-.06.33-.18.3-.86-.25-.98-1.24-1.76-1.55-.57-.22-1.39.22-1.47,1.09.19-.05.39.02.43.18.21.87,1.49.35,1.52.96.02.4-.96-.07-1.34.19-.51.34-.58,1.32-.13,1.9.46-.44,1.04.21,1.5-.12.32-.23.43-.55.75-.69.98-.43,1.27.47,1.05,1.38.53-.24,1.78-.5,2.07-.58.52-.14.54-1.33,1.17-1.77-.9,0-2.01-.39-2.26-1.27-.02-.09.04-.2.05-.31.02-.33,0-.66-.14-.96-.01-.03-.05-.07-.07-.11-.04-.05-.07-.1-.1-.15-.09-.12-.22-.18-.35-.26-.06-.04-.13-.05-.17-.1"/>
      <path class="cls-3" d="m24.31,59c.39.77-1.54-.46-2.27.67-.23.36-.11,1.18-.11,1.64.44-.4.89.37,1.72-.37.09.08.19.13.06.26-.31.31-.48.7-.32,1.07.1.24.79.73.8.69.07-.5.92,0,1.05-.98.06-.4.18-1.08.76-.83.53.22.64.82.52,1.43.85-.28,2.35-1.15,3.24-.51,1.2.87,3.17,1.22,4.57,1.66-.93-.65-1.23-2.34-1.07-3.44-2.21.44-4.53.36-6.58-.59-.56-.26-.49-.91-.65-1.44-.19-.6-.95-1.16-1.63-1.1-.37.03-1.25.8-1.09.84-.06-.01-.06.11-.08.17.17-.11.38,0,.45.18.05.12.11.26.21.36.12.12.34.15.41.29"/>
      <path class="cls-3" d="m29.61,71.08c.43-.53.79-.25.97-.24.45.02.42.65.37,1.05,1.76-.85,3.43-2.06,5.49-1.62-1.2-1.26-.78-3.95.92-4.29,0,0-1.1-.18-1.21-.25-1.48-.94-3.28-1.83-4.27.13-.49.97.41,1.76,1.09,2.57.12.15-.07.23-.23.28-1.61.41-4.59.66-4.72-1.76-.01-.24-.64-.44-1.04-.43-1.2.04-1.18,1.56-1.04,1.45.26-.2,1.06-.13.96.48-.09.57-1.2-.3-1.65.27-.37.48-.36,1.26-.1,1.79-.05-.19.17-.34.29-.35,1.24-.21,1.31.22.94,1.42-.03.09.37.85.63.92-.02,0-.02-.17.02-.23.04-.06.1-.1.16-.12.13-.04.27-.04.41-.07.06-.02.11-.06.17-.1.1-.06.16-.15.23-.24.29-.36.54-.83,1.03-.87.22-.02.37.08.56.2"/>
      <path class="cls-3" d="m42.43,76.68c1.13-1.13,1.95-2.63,3.16-3.72-1.33-.79-2.98-1.6-3.15-3.36-.01-.12.18-.25.23-.23,1.85,1.04,4.34,1.12,5.67-.77,1.07-1.53,1.54-4,3.64-4.14-.7-1.34.09-2.89,1.23-3.6-.39-.15-.88-.46-1.32-.38-.53.09-.76.81-1.36.92.95-3.2-.89-7.67-4.41-7.59-.66.01-1.52.55-1.73,1.27-.2.68-.31,1.54.18,2.12,1.15,1.38,1.99,2.89,1.62,4.71.82-.71,1.58-1.75,1.55-2.87,0-.28.5-.08.58-.2.96-1.41-.61-2.28-1.45-3.17-.23-.24.36-.61.43-.59,3.02.9,3.31,4.62,2.01,7.04-.34-.43-1.62-.29-2.06-.44,1.41.71,1.05.81.99,1.05-.11.43-1.37.24-1.62.55-.42.54-.74.78-.78,2.58.59-.63,1.35-1.59,2.19-1.16,1.78.91-.09,3.99-1.77,4.5-1.43.43-2.76-.02-3.65-1.27-1.28-1.8-.35-3.99-1.26-5.82-.76.19-.59,1.18-.98,1-1.4-.65-2.19-2.14-3.2-3.39-.42.15-.6.54-1.01.52-.6-.03-1.73-.21-1.97.09-.28.35-.48,2.89,1.99,3.81,1.68.63,3,1.18,4.06,2.49-.71.06-.95-.29-1.53-.31-.57-.02-.93.2-1.36.42-.41.21-.89,1.02-.81,1.66.39,3.07,4,3.12,5.66,5.06.29.33-.44,1.66-1.11,2.21-.58.46-1.97-.7-1.74-1.68.18-.78-1.71-1.31-2.38-.41.26-.03.33.14.31.27-.12.72.78.75.75,1.12-.04.51-.48-.21-.83-.28-.77-.15-1.52.11-1.97.73-.14.18-.44.48-.3.79.58-.29.89.62,1.43.34.33-.17.6-.46,1-.36.16.04.32.26.18.35-1.06.68-1.92,1.64-1.15,2.73.02-.25.22-.43.38-.48.31-.09.72.12,1.02.03.5-.17.24-.66.43-1.01.29-.56,1.3-1.47,1.87-.81.1.12.02.57-.28.57.31,0,.59.3.86.24.08-.01.15-.01.22-.05.06-.03.13-.04.17-.09.12-.12.27-.26.29-.46.23.02.52.04.67-.15.14-.2.33-.35.49-.49"/>
      <path class="cls-3" d="m37.29,54.46c1.98-.55,4.18-1.58,4.65-3.78.6.36.79,1.18.8,1.68.04,2.76-1.16,5.14-.58,8.02.07.33.66,1.35.39,1.23-.33-.15-1.03-.8-1.41-.5-.48.38-.45.97-.68.83-.87-.53-1.79-1.31-2.21-2.32-.16-.38-.1-1.2-.2-1.08-.66.72-2.01.88-3.02,1.03.23-.21.43-1.03.4-1.2-.79-.39-1.92.95-1.9.78.04-.44.09-.57.13-.69.59-1.73,1.69-3.47,3.63-4.01"/>
      <path class="cls-3" d="m22.58,7.53c.51-.01.89-.33,1.22-.68-.03.29.4.7.24,1.01-.2.39-.69.62-.79.98-.2.73.39,1.45-.04,2.18-1.27,2.15-4.04,1.44-5.94,1.91.13-.23-.03-.58-.17-.67.84.11,1.96-.08,2.18-.71.28-.78.41-1.36.05-2.01-.61-1.07-1.87-.57-2.82-.2-.15-.66.47-1.06.83-1.15,1-.26,1.91-.7,2.85-1.05.81-.31,1.56.41,2.39.39m-1.4,1.07c.08-.04.13-.1.12-.11-.72-1.01-1.58-.91-1.95,0-.25.61,1.2.41,1.83.11"/>
      <path class="cls-3" d="m59.19,11.58c-.27.23-.72.23-1.03.44-.19.13-.36.27-.55.39-.09.06-.36.18-.46.2-.28.07-.22.04-.47.07-.15.02-.22.03-.38.03s-.62.01-.77,0c-.36,0-.42.02-.78-.04-.21-.03-.41-.09-.6-.16-.13-.04-.27-.07-.41-.07.02-.15.03-.3.15-.4.15-.13.18-.01.4-.03,0,0,.31.03.32.03.05,0,.11,0,.17-.01.09-.01.17-.03.26-.07.11-.05.23-.08.32-.16.03-.03.07-.06.11-.09.07-.07.17-.1.24-.18.21-.25.36-.49.38-.82.02-.24.04-.49,0-.73,0-.04-.01-.08-.02-.11-.02-.19-.11-.37-.2-.55-.55-1.05-1.87-.02-2.77-.07,0-.2-.02-.57.08-.7.64-.83,1.64-.42,2.16-.8,1.74-1.29,2.2-.36,4.02.14.55.15,1.33-.19,1.84-.41.13-.05.12.77.06.94-.22.58-.81.55-1.02,1.06-.31.76-.35,1.83-1.16,2.21m-1.13-3.46c.08-.05-.06.06,0,0-.78-.39-1.8-.91-2.16.14-.26.77,1.48.23,2.16-.13"/>
      <path class="cls-3" d="m39.79,48.84c.8.19,1.68.22,2.2-.49.26,1.09-.74,1.23-.93,1.76-.28.81-.26,1.62-1.05,2.04-1.57.83-3.52,1.83-5.32,1.98.01-.22-.14-.62.15-.64.63-.03,1.12-.5,1.26-.87.2-.52-.03-1.77-.5-2.02-.54-.29-1.02.15-1.51.37-.21-.55.65-1.46,2-1.38-.04,0,.67-.77.63-.74.88-.6,1.84-.3,3.06-.02m-2.39,1.41c.31.12,1.23-.39,1.57-.58.08-.04.14-.12.2-.19,0,0,0-.03-.02-.03-.26-.06-.5-.08-.76-.1-.19-.02-.34-.16-.53-.19-.05-.01-.1,0-.15.01-.07.03-.1.08-.16.11-.09.04-.23.04-.31.12-.09.08-.16.15-.19.26-.04.13,0,.32.08.43.07.09.17.13.27.16"/>
      <path class="cls-3" d="m64.2,41.22c-.03-.27.64-1.05.65-1.63.06-1.97,1.25-2.9,1.29-5.01,0-.55-2.27-1.07-2.37-2.25-.05-.59-.24-1.44.35-1.42.75.01,1.5-.12,2.03-.59,2.38-2.1.37-4.96.08-7.49-.06-.56.96-1.75.93-2.14-.16-2.14-.56-4.1.2-6.21-.6.54-.78,1.42-1.28,1.87-.25.23-.36-.27-.35-.35.3-1.85,1.04-3.48,1.9-5.24,1.02-2.09.51-3.78-1.37-4.41-1.72-.57-3.38,1.03-3.57,2.67-.17,1.51.3,3.32.66,4.56.1.36.04.77.12,1.09.31-1.25.34-2.55.32-3.87,0-.32.25-.75.58-.85,1.12-.32,1.7.49,1.62,1.11-.25,1.98-.65,3.5-1.12,5.46-.54,2.24.26,4.47.5,6.65-.86-.51-1.8-.53-2.13.81-.18.71.46,1.46.66,2.09.02-.86.83-2.03,1.62-1.5.96.64,1,3.72.79,4.13-.47.89-1.24,1.53-2.31,1.21-.6-.18-.36-1.07-.72-1.45-1.92-1.98-2.79-4.36-2.96-7.1-.03-.4.18-1.46.12-1.48-2.51-1.03-3.67,0-4.71,1.48-.18-.45-1.14-1.07-1.21-.94-.48.88-.34,2.49.37,3.11,1.93,1.67,3.85,2.8,4.94,5.19-1.16.15-2.29.49-2.74,1.7-.46,1.27-.31,3.03,1.03,3.54,1.09.42,2.96-.05,3.37,0,1.16.15,2.46,1.15,2.27,2.25,0,.05-.5,2.61-1.61,1.98-.6-.34-.26-1.75-1.18-1.97-1.23-.3-1.53,1.42-1.38,1.27.39-.37.66.24,1.43.67-2.58-.56-1.78,1.8-1.68,1.54.13-.37.6.02,1.52-.05.03,0-.2.19-.21.21-.14.24-.22.35-.32.6-.05.12-.04.25-.03.37.01.13.06.24.12.35.01.03.04.05.07.06.01,0,.05.06.05.06.06,0-.05-.18.1-.19.03,0,.14-.02.17,0,.07.03.16.07.23.09.07.02.14.03.21.04.18.02.24.03.39-.03.13-.05.26-.07.38-.16-.16.11.18-.17.17-.14.16-.34.26-.24.29-.3.27-.52.51-.57,1.12-.5.06,0,.17.13.21.18.04.06.17.39.15.27.04.24.19.39.21.63"/>
      <path class="cls-3" d="m45.61,17.48c-.16-.1-.21-.34-.32-.44-.03-.04-.06-.08-.1-.11-.05-.05-.08-.13-.1-.21-.11-.37-.05-.8.28-1.05.01-.01,0-.03.02-.05.02-.03.07-.05.08-.08,0-.03.07-.03.05-.07.02.01.02-.02.03-.03.07-.09.07-.24-.06-.28.11,0,.21,0,.32.03.04,0,.08.02.12.03.41.05.92.24,1.03.65l.14.16c.42.99.28,3.41,2.64,3.99,1.23.3,2.46.68,3.72.66-.3,1.23-.3,2.79.67,3.68-1.42-.77-2.36-.61-3.59-1.77-.55-.52-1.83-1.23-2.45-1.13-.25.04.35-.82-.21-.99-.37-.11-1.37-.09-1.54.17-.82,1.23-1.68,1.22-1.96,1.47.33-.28-1.34-1.64.73-2.38.2-.07.27-.52.03-.64-.41-.19-.74.09-1.14.33-.46.27-.56-.73-1.28-.36-.15-2.13,1.75-2.31,2.88-.98.08.1.4-.02.26-.13l-.26-.46Z"/>
      <path class="cls-2" d="m2.33,2.85l.02.69c.04,1.57.07,3.13.1,4.69.42,20.33.82,39.53,12.84,57.97,4.96,7.61,12.57,13.94,22.01,18.31l.28.13.28-.13c9.43-4.38,17.03-10.72,21.97-18.31,12.02-18.44,12.42-37.63,12.84-57.95.03-1.56.07-3.13.11-4.71l.02-.69H2.33Zm7.59,49.88l27.72-21.97,27.6,21.92c-.69,1.81-1.47,3.61-2.34,5.4l-25.26-20.05-25.37,20.12c-.87-1.79-1.65-3.59-2.35-5.4Zm48.8,12.73c-4.76,7.31-12.07,13.43-21.13,17.7-9.08-4.26-16.4-10.38-21.17-17.7-.8-1.23-1.54-2.46-2.24-3.69l23.46-18.6,23.35,18.54c-.71,1.25-1.46,2.5-2.27,3.75Zm12.62-57.25c-.29,13.99-.58,27.44-4.69,40.42l-29.02-23.04-29.14,23.1C4.37,35.69,4.08,22.22,3.79,8.2c-.03-1.33-.05-2.67-.09-4h67.72c-.03,1.34-.06,2.69-.09,4.02Z"/>
    </g>
  </g>
</svg>